<svg width="29" height="30" viewBox="0 0 29 30" fill="none" xmlns="http://www.w3.org/2000/svg">
<path fill-rule="evenodd" clip-rule="evenodd" d="M23.9484 5.01011C21.3172 2.37579 17.8178 0.924397 14.0899 0.922852C6.40803 0.922852 0.156124 7.17459 0.153034 14.8585C0.152004 17.3148 0.793674 19.7126 2.01333 21.8261L0.0361328 29.0478L7.42427 27.1098C9.46 28.2203 11.7519 28.8055 14.0842 28.8061H14.09C21.771 28.8061 28.0236 22.5539 28.0266 14.8696C28.0281 11.1456 26.5798 7.64425 23.9484 5.01011ZM14.0899 26.4525H14.0851C12.0066 26.4516 9.96812 25.8931 8.18936 24.8379L7.76656 24.5867L3.38233 25.7368L4.55254 21.4623L4.27703 21.0241C3.11745 19.1797 2.50514 17.048 2.50617 14.8594C2.50857 8.47269 7.7051 3.27667 14.0945 3.27667C17.1885 3.2777 20.097 4.48414 22.284 6.67368C24.4709 8.86322 25.6746 11.7736 25.6736 14.8688C25.6708 21.256 20.4747 26.4525 14.0899 26.4525ZM20.4438 17.7769C20.0956 17.6025 18.3835 16.7603 18.0642 16.6439C17.7452 16.5277 17.5128 16.4699 17.2809 16.8183C17.0486 17.1668 16.3814 17.9513 16.1781 18.1836C15.9749 18.416 15.772 18.4452 15.4237 18.2708C15.0754 18.0965 13.9534 17.7287 12.6232 16.5423C11.5881 15.619 10.8893 14.4786 10.686 14.1301C10.4831 13.7813 10.6843 13.611 10.8388 13.4195C11.2158 12.9513 11.5932 12.4606 11.7093 12.2283C11.8255 11.9959 11.7673 11.7924 11.6801 11.6182C11.5932 11.444 10.8968 9.72994 10.6067 9.03248C10.3238 8.35373 10.037 8.44539 9.82306 8.43475C9.62016 8.42462 9.3879 8.42256 9.15564 8.42256C8.92356 8.42256 8.54625 8.5096 8.22696 8.85841C7.90784 9.20706 7.00833 10.0494 7.00833 11.7634C7.00833 13.4775 8.25614 15.1333 8.4302 15.3658C8.60427 15.5982 10.8858 19.1155 14.379 20.6237C15.2098 20.9829 15.8583 21.1969 16.3642 21.3574C17.1985 21.6225 17.9574 21.585 18.5575 21.4954C19.2267 21.3954 20.6176 20.6529 20.9081 19.8396C21.1982 19.0261 21.1982 18.329 21.111 18.1836C21.0241 18.0383 20.7919 17.9513 20.4438 17.7769Z" fill="white"/>
</svg>
